<svg width="512" height="512" viewBox="0 0 512 512" xmlns="http://www.w3.org/2000/svg">
  <defs>
    <linearGradient id="shieldGrad" x1="0%" y1="0%" x2="100%" y2="100%">
      <stop offset="0%" stop-color="#2E1A47"/>
      <stop offset="100%" stop-color="#1a0e2e"/>
    </linearGradient>
    <linearGradient id="mintGrad" x1="0%" y1="0%" x2="100%" y2="100%">
      <stop offset="0%" stop-color="#00F5D4"/>
      <stop offset="100%" stop-color="#00c4aa"/>
    </linearGradient>
  </defs>
  <!-- Shield body -->
  <path d="M256 48 L432 120 L432 280 C432 380 350 450 256 480 C162 450 80 380 80 280 L80 120 Z" fill="url(#shieldGrad)" stroke="#00F5D4" stroke-width="6"/>
  <!-- Inner shield border -->
  <path d="M256 72 L412 136 L412 276 C412 366 338 430 256 458 C174 430 100 366 100 276 L100 136 Z" fill="none" stroke="rgba(0,245,212,0.3)" stroke-width="2"/>
  <!-- Neural network nodes -->
  <circle cx="256" cy="180" r="12" fill="url(#mintGrad)"/>
  <circle cx="190" cy="240" r="10" fill="url(#mintGrad)"/>
  <circle cx="322" cy="240" r="10" fill="url(#mintGrad)"/>
  <circle cx="160" cy="320" r="8" fill="url(#mintGrad)"/>
  <circle cx="220" cy="330" r="8" fill="url(#mintGrad)"/>
  <circle cx="292" cy="330" r="8" fill="url(#mintGrad)"/>
  <circle cx="352" cy="320" r="8" fill="url(#mintGrad)"/>
  <!-- Neural connections -->
  <line x1="256" y1="180" x2="190" y2="240" stroke="#00F5D4" stroke-width="2" opacity="0.6"/>
  <line x1="256" y1="180" x2="322" y2="240" stroke="#00F5D4" stroke-width="2" opacity="0.6"/>
  <line x1="190" y1="240" x2="160" y2="320" stroke="#00F5D4" stroke-width="2" opacity="0.4"/>
  <line x1="190" y1="240" x2="220" y2="330" stroke="#00F5D4" stroke-width="2" opacity="0.4"/>
  <line x1="322" y1="240" x2="292" y2="330" stroke="#00F5D4" stroke-width="2" opacity="0.4"/>
  <line x1="322" y1="240" x2="352" y2="320" stroke="#00F5D4" stroke-width="2" opacity="0.4"/>
  <line x1="190" y1="240" x2="292" y2="330" stroke="#00F5D4" stroke-width="1.5" opacity="0.25"/>
  <line x1="322" y1="240" x2="220" y2="330" stroke="#00F5D4" stroke-width="1.5" opacity="0.25"/>
  <!-- Center glow -->
  <circle cx="256" cy="260" r="40" fill="url(#mintGrad)" opacity="0.08"/>
</svg>
